<?xml version="1.0" standalone="no"?><!DOCTYPE svg PUBLIC "-//W3C//DTD SVG 1.1//EN" "http://www.w3.org/Graphics/SVG/1.1/DTD/svg11.dtd"><svg t="1575879126533" class="icon" viewBox="0 0 1024 1024" version="1.1" xmlns="http://www.w3.org/2000/svg" p-id="2557" xmlns:xlink="http://www.w3.org/1999/xlink" width="200" height="200"><defs><style type="text/css"></style></defs><path d="M512 556.89A273.6 273.6 0 0 0 705.45 89.83a273.6 273.6 0 1 0-386.92 386.92A271.81 271.81 0 0 0 512 556.89z m0-467.19c106.75 0 193.6 86.85 193.6 193.6S618.74 476.89 512 476.89 318.39 390 318.39 283.29 405.24 89.69 512 89.69z" fill="#7B808B" p-id="2558"></path><path d="M512 146.94c75.19 0 136.35 61.17 136.35 136.35a15 15 0 0 0 30 0c0-91.73-74.63-166.35-166.35-166.35a15 15 0 0 0 0 30z" fill="#7B808B" p-id="2559"></path><path d="M654.92 333.55m-15.27 0a15.27 15.27 0 1 0 30.54 0 15.27 15.27 0 1 0-30.54 0Z" fill="#7B808B" p-id="2560"></path><path d="M647.09 749.45L470 926.52l-93.13-93.13A40 40 0 0 0 320.32 890l106.43 106.38a61.26 61.26 0 0 0 86.54 0L703.66 806a40 40 0 1 0-56.57-56.57z" fill="#7B808B" p-id="2561"></path><path d="M854 588H170c-56.57 0-102.58 44.86-102.58 100v260.29a40 40 0 0 0 80 0V688c0-11 10.13-20 22.58-20h684c12.45 0 22.58 9 22.58 20v260.29a40 40 0 1 0 80 0V688c0.04-55.17-45.98-100-102.58-100z" fill="#7B808B" p-id="2562"></path></svg>